<?xml version="1.0" encoding="iso-8859-1"?>
<!-- Generator: Adobe Illustrator 18.1.1, SVG Export Plug-In . SVG Version: 6.00 Build 0)  -->
<svg version="1.1" id="Capa_1" xmlns="http://www.w3.org/2000/svg" xmlns:xlink="http://www.w3.org/1999/xlink" x="0px" y="0px"
	 viewBox="0 0 27.791 27.791" style="enable-background:new 0 0 27.791 27.791;" xml:space="preserve">
<g>
	<g>
		<path style="fill:#010002;" d="M17.402,16.294l3.994,3.313c-0.861,2.687-2.182,3.875-4.912,4.989
			C10.101,22.018,2.639,14.702,0,8.111c1.125-2.788,2.272-4.076,4.984-4.916L8.29,7.18l-1,3.454c0.146,1.088,0.471,2,0.99,2.732
			c0.241,0.363,0.894,1.076,1.947,2.129c1.179,1.18,2.251,1.775,3.206,1.778C13.861,17.286,15.182,16.958,17.402,16.294z
			 M18.882,14.706l-0.004,0.049c1.124,0.09,2.047,0.439,2.744,1.041c0.677,0.582,1.162,1.418,1.442,2.485l0.049-0.015
			C22.538,16.081,21.113,14.882,18.882,14.706z M18.881,13.394l-0.004,0.05c1.542,0.122,2.811,0.602,3.768,1.426
			c0.93,0.799,1.596,1.946,1.979,3.411l0.049-0.015c-0.389-1.473-1.06-2.629-1.996-3.435C21.711,14.001,20.434,13.517,18.881,13.394
			z M18.881,12.081l-0.004,0.05c1.96,0.155,3.571,0.766,4.789,1.814c1.182,1.016,2.025,2.475,2.516,4.335l0.049-0.012
			c-0.492-1.871-1.344-3.338-2.53-4.361C22.473,12.853,20.852,12.238,18.881,12.081z M24.721,12.982
			c-1.484-1.278-3.449-2.023-5.84-2.213l-0.004,0.05c2.379,0.189,4.334,0.929,5.811,2.201c1.433,1.232,2.459,3.002,3.054,5.26
			l0.049-0.012C27.191,16.001,26.16,14.222,24.721,12.982z"/>
	</g>
</g>
<g>
</g>
<g>
</g>
<g>
</g>
<g>
</g>
<g>
</g>
<g>
</g>
<g>
</g>
<g>
</g>
<g>
</g>
<g>
</g>
<g>
</g>
<g>
</g>
<g>
</g>
<g>
</g>
<g>
</g>
</svg>
